<svg width="384" height="384" viewBox="0 0 384 384" fill="none" xmlns="http://www.w3.org/2000/svg">
<circle r="192" transform="matrix(-1 0 0 1 192 192)" fill="#411C31"/>
<path d="M167.577 187.179C172.886 187.179 188.816 178.569 188.816 157.283C188.816 124.189 159.58 118 126.649 118C120.425 118 101.454 118.011 87.9294 118.005C79.1311 118 72 125.152 72 133.97V251.036C72 259.853 79.1311 267 87.9294 267H150.585C174.049 267 193.94 248.396 194.126 224.881C194.375 192.548 167.577 187.179 167.577 187.179ZM103.859 144.607H141.028C149.826 144.607 156.957 151.754 156.957 160.571C156.957 169.389 149.826 176.536 141.028 176.536H103.859V144.607ZM143.682 240.393H103.859V203.143H143.682C153.946 203.143 162.267 211.482 162.267 221.768C162.267 232.054 153.946 240.393 143.682 240.393ZM303.03 219.107C307.432 219.107 310.995 215.536 311 211.125C311 180.266 289.702 155.25 257.902 155.25C228.576 155.25 204.804 180.266 204.804 211.125C204.804 241.984 228.576 267 257.902 267C283.851 267 298.267 254.835 305.308 236.971C306.667 233.528 304.002 229.798 300.306 229.798H287.557C285.619 229.798 283.904 230.899 282.9 232.565C278.047 240.6 270.64 245.714 260.668 245.714C245.737 245.714 234.863 234.353 232.091 219.107H289.023H303.03ZM257.902 176.536C268.93 176.536 279.619 185.348 282.635 197.821H233.397C237.395 185.321 246.857 176.536 257.902 176.536ZM281.738 144.607H239.259C234.863 144.607 231.294 141.031 231.294 136.625C231.294 132.219 234.863 128.643 239.259 128.643H281.738C286.134 128.643 289.702 132.219 289.702 136.625C289.702 141.031 286.134 144.607 281.738 144.607Z" fill="white"/>
</svg>
