<svg width="384" height="384" viewBox="0 0 384 384" fill="none" xmlns="http://www.w3.org/2000/svg">
<circle r="192" transform="matrix(-1 0 0 1 192 192)" fill="#411C31"/>
<path d="M111 89C98.2925 89 88 99.2925 88 112V273C88 285.708 98.2925 296 111 296H272C284.708 296 295 285.708 295 273V112C295 99.2925 284.708 89 272 89H111ZM111 112H272V273H111V112ZM142.962 127.139C133.106 127.139 127.194 133.063 127.194 140.952C127.194 148.841 133.107 154.743 141.974 154.743C151.829 154.743 157.741 148.841 157.741 140.952C157.741 133.063 151.828 127.139 142.962 127.139ZM127.98 169.5V250H157V169.5H127.98ZM180.943 169.5V250H209.963V205.999C209.963 192.901 219.308 191.018 222.114 191.018C224.92 191.018 232.424 193.832 232.424 205.999V250H260.5V205.999C260.5 180.734 249.273 169.5 235.231 169.5C221.19 169.5 213.7 174.175 209.963 180.73V169.5H180.943Z" fill="white"/>
</svg>
