<svg width="20" height="22" viewBox="0 0 20 22" fill="none" xmlns="http://www.w3.org/2000/svg">
<path fill-rule="evenodd" clip-rule="evenodd" d="M4.37069 9.81985H15.5481V6.43286H11.9871C11.6133 6.43286 11.093 6.2313 10.8466 5.98494C10.6003 5.73858 10.4504 5.29411 10.4504 4.92198V1.3162H1.40234C1.37133 1.3162 1.34721 1.33171 1.33171 1.34721C1.30587 1.36444 1.29898 1.38684 1.29898 1.41957V19.7586C1.29898 19.7827 1.31448 19.8137 1.32999 19.8292C1.34549 19.8533 1.37822 19.8602 1.40062 19.8602C5.32512 19.8602 11.4083 19.8602 15.443 19.8602C15.474 19.8602 15.4723 19.8447 15.4895 19.8292C15.5136 19.8137 15.5464 19.781 15.5464 19.7586V17.8359H4.37069C3.65746 17.8359 3.06827 17.2502 3.06827 16.5335V11.1206C3.06827 10.4056 3.65402 9.81985 4.37069 9.81985ZM5.08048 11.6115H7.35283C7.84727 11.6115 8.21766 11.7287 8.46574 11.9647C8.7121 12.2007 8.83442 12.535 8.83442 12.9708C8.83442 13.417 8.70004 13.7667 8.43129 14.0183C8.16254 14.2698 7.75251 14.3956 7.20122 14.3956H6.45181V16.0305H5.08048V11.6115ZM6.45009 13.5014H6.78603C7.05134 13.5014 7.2374 13.4549 7.34421 13.3636C7.45103 13.2723 7.50443 13.1552 7.50443 13.0122C7.50443 12.8726 7.45792 12.7555 7.36489 12.659C7.27186 12.5625 7.09786 12.5143 6.83944 12.5143H6.44837V13.5014H6.45009ZM9.47185 11.6115H11.5013C11.901 11.6115 12.2249 11.6667 12.4712 11.7735C12.7176 11.882 12.9209 12.0371 13.0828 12.2404C13.243 12.4436 13.3602 12.6797 13.4308 12.9484C13.5032 13.2172 13.5393 13.5032 13.5393 13.8046C13.5393 14.2767 13.4859 14.6436 13.3774 14.9038C13.2706 15.1639 13.1207 15.3827 12.9295 15.5584C12.7382 15.7342 12.5332 15.8513 12.3144 15.9099C12.0147 15.9909 11.7442 16.0305 11.5013 16.0305H9.47185V11.6115ZM10.8346 12.6125V15.0261H11.1705C11.4565 15.0261 11.6598 14.9934 11.7821 14.9313C11.9027 14.8676 11.9974 14.7573 12.0664 14.6006C12.1353 14.4421 12.1697 14.1871 12.1697 13.8339C12.1697 13.3653 12.0939 13.0466 11.9406 12.8726C11.7873 12.7003 11.534 12.6142 11.1791 12.6142H10.8346V12.6125ZM14.1681 11.6115H17.5448V12.5625H15.5395V13.3343H17.2554V14.2302H15.5395V16.0322H14.1699V11.6115H14.1681ZM16.8454 9.81985H18.5561C19.2727 9.81985 19.8585 10.4073 19.8585 11.1223V16.5352C19.8585 17.2502 19.271 17.8377 18.5561 17.8377H16.8454V20.172C16.8454 20.4494 16.7334 20.6958 16.5525 20.8784C16.3699 21.061 16.1235 21.1713 15.8461 21.1713C10.7743 21.1713 6.09692 21.1713 0.999213 21.1713C0.721845 21.1713 0.475488 21.061 0.292873 20.8784C0.110258 20.6958 0 20.4494 0 20.172V1.00783C0 0.730459 0.111981 0.484101 0.292873 0.301487C0.475488 0.118872 0.728736 0.0086139 0.999213 0.0086139H11.1154C11.1378 0 11.1619 0 11.186 0C11.2963 0 11.4083 0.0482379 11.4875 0.118872H11.503C11.5185 0.127486 11.5271 0.134377 11.5426 0.149882L16.7092 5.38024C16.7971 5.46811 16.8609 5.58698 16.8609 5.72135C16.8609 5.76098 16.8522 5.79199 16.8454 5.83334V9.81985ZM11.6305 4.81862V1.54017L15.3224 5.2786H12.0905C11.963 5.2786 11.8527 5.22347 11.7649 5.14422C11.6856 5.06498 11.6305 4.9461 11.6305 4.81862Z" fill="#101010"/>
</svg>
